<svg xmlns="http://www.w3.org/2000/svg" version="1.1" xmlns:xlink="http://www.w3.org/1999/xlink" xmlns:svgjs="http://svgjs.dev/svgjs" viewBox="0 0 800 800"><defs><linearGradient x1="50%" y1="0%" x2="50%" y2="100%" id="ffflurry-grad" gradientTransform="rotate(270)"><stop stop-color="hsl(238, 82%, 13%)" stop-opacity="1" offset="0%"></stop><stop stop-color="hsl(37, 99%, 67%)" stop-opacity="1" offset="45%"></stop><stop stop-color="hsl(316, 73%, 52%)" stop-opacity="1" offset="100%"></stop></linearGradient></defs><rect width="100%" height="100%" fill="hsl(238, 82%, 13%)"></rect><g fill="url(#ffflurry-grad)"><rect width="298" height="2" x="-4" y="133" rx="1" transform="rotate(134, 145, 134)" opacity="0.10"></rect><rect width="59" height="2" x="44.5" y="524" rx="1" transform="rotate(134, 74, 525)" opacity="0.23"></rect><rect width="201" height="2" x="53.5" y="699" rx="1" transform="rotate(134, 154, 700)" opacity="0.09"></rect><rect width="199" height="2" x="457.5" y="91" rx="1" transform="rotate(134, 557, 92)" opacity="0.16"></rect><rect width="98" height="2" x="458" y="241" rx="1" transform="rotate(134, 507, 242)" opacity="0.12"></rect><rect width="243" height="2" x="156.5" y="371" rx="1" transform="rotate(134, 278, 372)" opacity="0.54"></rect><rect width="57" height="2" x="349.5" y="26" rx="1" transform="rotate(134, 378, 27)" opacity="0.26"></rect><rect width="113" height="2" x="298.5" y="585" rx="1" transform="rotate(134, 355, 586)" opacity="0.20"></rect><rect width="55" height="2" x="180.5" y="725" rx="1" transform="rotate(134, 208, 726)" opacity="0.30"></rect><rect width="250" height="2" x="417" y="418" rx="1" transform="rotate(134, 542, 419)" opacity="0.86"></rect><rect width="56" height="2" x="209" y="605" rx="1" transform="rotate(134, 237, 606)" opacity="0.73"></rect><rect width="79" height="2" x="252.5" y="648" rx="1" transform="rotate(134, 292, 649)" opacity="0.17"></rect><rect width="86" height="2" x="192" y="82" rx="1" transform="rotate(134, 235, 83)" opacity="0.33"></rect><rect width="294" height="2" x="-87" y="269" rx="1" transform="rotate(134, 60, 270)" opacity="0.28"></rect><rect width="222" height="2" x="529" y="348" rx="1" transform="rotate(134, 640, 349)" opacity="0.97"></rect><rect width="56" height="2" x="46" y="684" rx="1" transform="rotate(134, 74, 685)" opacity="0.98"></rect><rect width="254" height="2" x="621" y="334" rx="1" transform="rotate(134, 748, 335)" opacity="0.58"></rect><rect width="60" height="2" x="278" y="723" rx="1" transform="rotate(134, 308, 724)" opacity="0.91"></rect><rect width="61" height="2" x="674.5" y="552" rx="1" transform="rotate(134, 705, 553)" opacity="0.50"></rect><rect width="84" height="2" x="598" y="653" rx="1" transform="rotate(134, 640, 654)" opacity="0.92"></rect><rect width="269" height="2" x="37.5" y="554" rx="1" transform="rotate(134, 172, 555)" opacity="0.86"></rect><rect width="295" height="2" x="592.5" y="655" rx="1" transform="rotate(134, 740, 656)" opacity="0.53"></rect><rect width="278" height="2" x="60" y="206" rx="1" transform="rotate(134, 199, 207)" opacity="0.97"></rect><rect width="202" height="2" x="266" y="247" rx="1" transform="rotate(134, 367, 248)" opacity="0.70"></rect><rect width="37" height="2" x="97.5" y="613" rx="1" transform="rotate(134, 116, 614)" opacity="0.22"></rect><rect width="225" height="2" x="240.5" y="669" rx="1" transform="rotate(134, 353, 670)" opacity="0.34"></rect><rect width="173" height="2" x="459.5" y="751" rx="1" transform="rotate(134, 546, 752)" opacity="0.14"></rect><rect width="54" height="2" x="351" y="352" rx="1" transform="rotate(134, 378, 353)" opacity="0.53"></rect><rect width="48" height="2" x="292" y="117" rx="1" transform="rotate(134, 316, 118)" opacity="0.21"></rect><rect width="175" height="2" x="9.5" y="396" rx="1" transform="rotate(134, 97, 397)" opacity="0.46"></rect><rect width="218" height="2" x="197" y="195" rx="1" transform="rotate(134, 306, 196)" opacity="0.94"></rect><rect width="102" height="2" x="-21" y="420" rx="1" transform="rotate(134, 30, 421)" opacity="0.50"></rect><rect width="113" height="2" x="537.5" y="528" rx="1" transform="rotate(134, 594, 529)" opacity="0.72"></rect><rect width="188" height="2" x="552" y="560" rx="1" transform="rotate(134, 646, 561)" opacity="0.31"></rect><rect width="133" height="2" x="240.5" y="436" rx="1" transform="rotate(134, 307, 437)" opacity="0.85"></rect><rect width="202" height="2" x="38" y="324" rx="1" transform="rotate(134, 139, 325)" opacity="0.58"></rect><rect width="28" height="2" x="457" y="26" rx="1" transform="rotate(134, 471, 27)" opacity="0.88"></rect><rect width="142" height="2" x="379" y="294" rx="1" transform="rotate(134, 450, 295)" opacity="0.38"></rect><rect width="169" height="2" x="657.5" y="449" rx="1" transform="rotate(134, 742, 450)" opacity="0.56"></rect><rect width="164" height="2" x="483" y="288" rx="1" transform="rotate(134, 565, 289)" opacity="0.87"></rect><rect width="152" height="2" x="235" y="38" rx="1" transform="rotate(134, 311, 39)" opacity="0.26"></rect><rect width="147" height="2" x="226.5" y="293" rx="1" transform="rotate(134, 300, 294)" opacity="0.64"></rect><rect width="197" height="2" x="-50.5" y="97" rx="1" transform="rotate(134, 48, 98)" opacity="0.70"></rect><rect width="34" height="2" x="224" y="684" rx="1" transform="rotate(134, 241, 685)" opacity="0.56"></rect><rect width="35" height="2" x="513.5" y="667" rx="1" transform="rotate(134, 531, 668)" opacity="0.32"></rect><rect width="239" height="2" x="477.5" y="181" rx="1" transform="rotate(134, 597, 182)" opacity="0.97"></rect><rect width="90" height="2" x="401" y="223" rx="1" transform="rotate(134, 446, 224)" opacity="0.23"></rect><rect width="151" height="2" x="695.5" y="563" rx="1" transform="rotate(134, 771, 564)" opacity="0.33"></rect><rect width="42" height="2" x="740" y="746" rx="1" transform="rotate(134, 761, 747)" opacity="0.37"></rect><rect width="81" height="2" x="281.5" y="776" rx="1" transform="rotate(134, 322, 777)" opacity="0.45"></rect><rect width="129" height="2" x="367.5" y="116" rx="1" transform="rotate(134, 432, 117)" opacity="0.37"></rect><rect width="43" height="2" x="232.5" y="766" rx="1" transform="rotate(134, 254, 767)" opacity="0.76"></rect><rect width="209" height="2" x="104.5" y="412" rx="1" transform="rotate(134, 209, 413)" opacity="0.61"></rect><rect width="49" height="2" x="503.5" y="515" rx="1" transform="rotate(134, 528, 516)" opacity="0.59"></rect><rect width="110" height="2" x="336" y="533" rx="1" transform="rotate(134, 391, 534)" opacity="0.83"></rect><rect width="92" height="2" x="464" y="160" rx="1" transform="rotate(134, 510, 161)" opacity="0.22"></rect><rect width="180" height="2" x="73" y="36" rx="1" transform="rotate(134, 163, 37)" opacity="0.50"></rect><rect width="214" height="2" x="556" y="230" rx="1" transform="rotate(134, 663, 231)" opacity="0.55"></rect><rect width="221" height="2" x="291.5" y="175" rx="1" transform="rotate(134, 402, 176)" opacity="0.63"></rect><rect width="91" height="2" x="703.5" y="210" rx="1" transform="rotate(134, 749, 211)" opacity="0.57"></rect><rect width="117" height="2" x="185.5" y="512" rx="1" transform="rotate(134, 244, 513)" opacity="0.42"></rect><rect width="74" height="2" x="129" y="771" rx="1" transform="rotate(134, 166, 772)" opacity="0.24"></rect><rect width="55" height="2" x="434.5" y="540" rx="1" transform="rotate(134, 462, 541)" opacity="0.59"></rect><rect width="72" height="2" x="410" y="469" rx="1" transform="rotate(134, 446, 470)" opacity="0.40"></rect><rect width="102" height="2" x="4" y="177" rx="1" transform="rotate(134, 55, 178)" opacity="0.48"></rect><rect width="118" height="2" x="513" y="608" rx="1" transform="rotate(134, 572, 609)" opacity="0.96"></rect><rect width="188" height="2" x="88" y="633" rx="1" transform="rotate(134, 182, 634)" opacity="0.25"></rect><rect width="206" height="2" x="-51" y="755" rx="1" transform="rotate(134, 52, 756)" opacity="0.94"></rect><rect width="160" height="2" x="-49" y="601" rx="1" transform="rotate(134, 31, 602)" opacity="0.58"></rect><rect width="242" height="2" x="643" y="84" rx="1" transform="rotate(134, 764, 85)" opacity="0.49"></rect><rect width="50" height="2" x="371" y="412" rx="1" transform="rotate(134, 396, 413)" opacity="0.52"></rect><rect width="188" height="2" x="387" y="613" rx="1" transform="rotate(134, 481, 614)" opacity="0.11"></rect><rect width="148" height="2" x="224" y="567" rx="1" transform="rotate(134, 298, 568)" opacity="0.67"></rect><rect width="29" height="2" x="374.5" y="300" rx="1" transform="rotate(134, 389, 301)" opacity="0.20"></rect><rect width="156" height="2" x="503" y="27" rx="1" transform="rotate(134, 581, 28)" opacity="0.72"></rect><rect width="207" height="2" x="562.5" y="747" rx="1" transform="rotate(134, 666, 748)" opacity="0.75"></rect><rect width="268" height="2" x="498" y="449" rx="1" transform="rotate(134, 632, 450)" opacity="0.49"></rect><rect width="208" height="2" x="334" y="698" rx="1" transform="rotate(134, 438, 699)" opacity="0.65"></rect><rect width="28" height="2" x="414" y="66" rx="1" transform="rotate(134, 428, 67)" opacity="0.21"></rect><rect width="215" height="2" x="110.5" y="294" rx="1" transform="rotate(134, 218, 295)" opacity="0.54"></rect><rect width="90" height="2" x="108" y="473" rx="1" transform="rotate(134, 153, 474)" opacity="0.35"></rect><rect width="227" height="2" x="352.5" y="390" rx="1" transform="rotate(134, 466, 391)" opacity="0.20"></rect><rect width="187" height="2" x="253.5" y="486" rx="1" transform="rotate(134, 347, 487)" opacity="0.77"></rect><rect width="53" height="2" x="482.5" y="337" rx="1" transform="rotate(134, 509, 338)" opacity="0.40"></rect><rect width="36" height="2" x="393" y="612" rx="1" transform="rotate(134, 411, 613)" opacity="0.77"></rect><rect width="241" height="2" x="561.5" y="68" rx="1" transform="rotate(134, 682, 69)" opacity="0.82"></rect><rect width="81" height="2" x="367.5" y="763" rx="1" transform="rotate(134, 408, 764)" opacity="0.43"></rect><rect width="204" height="2" x="-45" y="30" rx="1" transform="rotate(134, 57, 31)" opacity="0.90"></rect></g></svg>